<?xml version="1.0" standalone="no"?>
<!DOCTYPE svg PUBLIC "-//W3C//DTD SVG 20010904//EN"
 "http://www.w3.org/TR/2001/REC-SVG-20010904/DTD/svg10.dtd">
<svg version="1.0" xmlns="http://www.w3.org/2000/svg"
 width="16.000000pt" height="16.000000pt" viewBox="0 0 16.000000 16.000000"
 preserveAspectRatio="xMidYMid meet">

<g transform="translate(0.000000,16.000000) scale(0.100000,-0.100000)"
fill="#000000" stroke="none">
<path d="M33 118 c-41 -20 -40 -57 3 -77 37 -16 79 -14 104 7 57 46 -34 105
-107 70z m67 -9 c0 -5 -5 -7 -11 -3 -6 3 -15 0 -20 -7 -7 -11 -9 -10 -9 4 0
10 8 17 20 17 11 0 20 -5 20 -11z m-64 -21 c-1 -20 4 -23 37 -22 20 1 37 -2
37 -7 0 -10 -50 -12 -74 -3 -16 6 -22 35 -9 47 9 10 10 9 9 -15z m104 -3 c0
-8 -3 -16 -7 -18 -5 -3 -8 5 -8 18 0 13 3 21 8 18 4 -2 7 -10 7 -18z"/>
</g>
</svg>
